<?xml version="1.0" encoding="UTF-8" standalone="no"?>
<!-- Created with Inkscape (http://www.inkscape.org/) -->

<svg
   xmlns:dc="http://purl.org/dc/elements/1.1/"
   xmlns:cc="http://creativecommons.org/ns#"
   xmlns:rdf="http://www.w3.org/1999/02/22-rdf-syntax-ns#"
   xmlns:svg="http://www.w3.org/2000/svg"
   xmlns="http://www.w3.org/2000/svg"
   xmlns:sodipodi="http://sodipodi.sourceforge.net/DTD/sodipodi-0.dtd"
   xmlns:inkscape="http://www.inkscape.org/namespaces/inkscape"
   version="1.1"
   id="svg2"
   xml:space="preserve"
   width="880"
   height="880"
   viewBox="0 0 880 880"
   sodipodi:docname="keys-on-keychain-publicdomainvectors.org.ai.2021_02_07_05_47_09.0.svg"
   inkscape:version="0.92.4 (5da689c313, 2019-01-14)"><metadata
     id="metadata8"><rdf:RDF><cc:Work
         rdf:about=""><dc:format>image/svg+xml</dc:format><dc:type
           rdf:resource="http://purl.org/dc/dcmitype/StillImage" /></cc:Work></rdf:RDF></metadata><defs
     id="defs6"><clipPath
       clipPathUnits="userSpaceOnUse"
       id="clipPath18"><path
         d="M 0,660 H 660 V 0 H 0 Z"
         id="path16"
         inkscape:connector-curvature="0" /></clipPath></defs><sodipodi:namedview
     pagecolor="#ffffff"
     bordercolor="#666666"
     borderopacity="1"
     objecttolerance="10"
     gridtolerance="10"
     guidetolerance="10"
     inkscape:pageopacity="0"
     inkscape:pageshadow="2"
     inkscape:window-width="1920"
     inkscape:window-height="1057"
     id="namedview4"
     showgrid="false"
     inkscape:zoom="1.5170655"
     inkscape:cx="395.24186"
     inkscape:cy="365.03252"
     inkscape:window-x="0"
     inkscape:window-y="0"
     inkscape:window-maximized="1"
     inkscape:current-layer="g14" /><g
     id="g10"
     inkscape:groupmode="layer"
     inkscape:label="keys-on-keychain-publicdomainvectors.org"
     transform="matrix(1.3333333,0,0,-1.3333333,0,880)"><g
       id="g12"><g
         id="g14"
         clip-path="url(#clipPath18)"><g
           id="g919"><path
             style="fill:#c2342f;fill-opacity:1;stroke:none;stroke-width:0.75px;stroke-linecap:butt;stroke-linejoin:miter;stroke-opacity:1"
             d="m 420.05698,141.65025 179,0 -30,-44.00031 h -149 z"
             id="path876"
             inkscape:connector-curvature="0"
             sodipodi:nodetypes="ccccc" /><path
             sodipodi:nodetypes="cscccc"
             inkscape:connector-curvature="0"
             id="path852"
             d="m 479.81436,-108.13717 c -5.77082,0 -10.44898,-4.67817 -10.44898,-10.44899 0,-5.77081 4.67817,-10.44898 10.44898,-10.44898 l 110.64087,2.5e-4 -14.24707,20.89747 z"
             style="fill:#a72521;fill-opacity:1;stroke:none;stroke-width:24.94708252;stroke-linecap:round;stroke-linejoin:round;stroke-miterlimit:4;stroke-dasharray:none;stroke-opacity:1;paint-order:markers stroke fill"
             transform="scale(1,-1)" /><path
             sodipodi:nodetypes="cccccccccccccc"
             inkscape:connector-curvature="0"
             id="path842"
             d="m 420.05698,169.64994 h 50 l 13,-10 13,10 h 8 l 6,-5 6,5 h 16 l 13,-10 13,10 h 20 l 21,-28 -179,3.1e-4 z"
             style="fill:#a72521;fill-opacity:1;stroke:none;stroke-width:0.75px;stroke-linecap:butt;stroke-linejoin:miter;stroke-opacity:1" /><path
             id="circle854-7"
             d="M 420.05698,169.64994 V 97.64993 h 24.30615 a 31.685741,57.292206 0 0 1 6.96972,35.76124 31.685741,57.292206 0 0 1 -7.16894,36.23877 z"
             style="fill:#000000;fill-opacity:0.1254902;stroke:none;stroke-width:101.72446442;stroke-linecap:round;stroke-linejoin:round;stroke-miterlimit:4;stroke-dasharray:none;stroke-opacity:1;paint-order:markers stroke fill"
             inkscape:connector-curvature="0" /><path
             id="path944"
             transform="matrix(0.75000002,0,0,-0.75000002,0,660.00002)"
             d="M 472.82227 606.81641 A 95.549151 95.549151 0 0 0 377.27148 702.36523 A 95.549151 95.549151 0 0 0 472.82227 797.91406 A 95.549151 95.549151 0 0 0 568.37109 702.36523 A 95.549151 95.549151 0 0 0 472.82227 606.81641 z M 432.85156 657.33008 A 45.138351 45.138351 0 0 1 477.99023 702.46875 A 45.138351 45.138351 0 0 1 432.85156 747.60547 A 45.138351 45.138351 0 0 1 387.71289 702.46875 A 45.138351 45.138351 0 0 1 432.85156 657.33008 z "
             style="fill:#c2342f;fill-opacity:1;stroke:#db403e;stroke-width:34.90169144;stroke-linecap:round;stroke-linejoin:round;stroke-miterlimit:4;stroke-dasharray:none;stroke-opacity:1;paint-order:markers stroke fill" /></g><g
           id="g942"><path
             inkscape:connector-curvature="0"
             id="path22"
             style="fill:#c2342f;fill-opacity:1;fill-rule:evenodd;stroke:none"
             d="m 432.948,334.481 130.456,-69.128 48.082,24.478 -4.34,34.439 -20.017,10.605 -15.065,-3.059 -5.925,14.183 -13.205,6.997 -9.714,-1.973 -3.824,9.145 -5.524,2.928 -16.652,-3.382 -6.555,15.679 -60.938,32.293 z" /><path
             inkscape:connector-curvature="0"
             id="path24"
             style="fill:#a72521;fill-opacity:1;fill-rule:evenodd;stroke:none"
             d="m 575.259,271.388 22.759,11.586 -97.823,51.835 c -5.077,2.692 -11.431,0.739 -14.121,-4.338 -2.689,-5.078 -0.739,-11.433 4.337,-14.122 z" /><path
             inkscape:connector-curvature="0"
             id="path26"
             style="fill:#a72521;fill-opacity:1;fill-rule:evenodd;stroke:none"
             d="m 611.486,289.831 -4.34,34.439 -20.017,10.605 -15.065,-3.059 -5.925,14.183 -13.205,6.996 -9.714,-1.972 -3.824,9.145 -5.524,2.928 -16.652,-3.382 -6.555,15.679 -44.076,23.357 -13.296,-25.092 z" /><path
             inkscape:connector-curvature="0"
             id="path28"
             style="fill:#a72521;fill-opacity:1;fill-rule:evenodd;stroke:none"
             d="m 432.951,334.481 21.012,-11.135 c 9.254,7.776 17.197,17.416 23.202,28.752 6.008,11.335 9.527,23.323 10.764,35.344 l -38.202,20.244 z" /><path
             inkscape:connector-curvature="0"
             id="path30"
             style="fill:#911e1e;fill-opacity:1;fill-rule:evenodd;stroke:none"
             d="m 487.929,387.442 -21.34,11.308 -13.296,-25.092 27.276,-14.454 c 3.955,9.186 6.377,18.701 7.36,28.238" /><path
             inkscape:connector-curvature="0"
             id="path32"
             style="fill:#db403e;fill-opacity:1;fill-rule:evenodd;stroke:none"
             d="m 330.549,429.792 c -9.379,-17.7 -2.633,-39.653 15.066,-49.031 17.7,-9.379 39.651,-2.634 49.031,15.065 9.378,17.7 2.632,39.652 -15.067,49.03 -17.7,9.379 -39.65,2.634 -49.03,-15.064 m -13.618,7.217 c 21.882,41.297 73.103,57.035 114.399,35.151 41.298,-21.883 57.037,-73.103 35.153,-114.402 -21.884,-41.296 -73.104,-57.035 -114.402,-35.152 -41.295,21.885 -57.035,73.104 -35.15,114.403" /><path
             inkscape:connector-curvature="0"
             id="path34"
             style="fill:#c2342f;fill-opacity:1;fill-rule:evenodd;stroke:none"
             d="m 472.71,372.851 c -1.56,-5.127 -3.624,-10.18 -6.227,-15.093 -21.884,-41.296 -73.104,-57.035 -114.402,-35.152 -25.586,13.56 -41.354,38.38 -44.453,65.123 4.46,9.707 10.731,18.691 18.717,26.404 -0.483,-13.453 6.576,-26.647 19.27,-33.372 17.7,-9.379 39.651,-2.634 49.031,15.065 7.743,14.612 4.495,32.122 -6.833,43.063 27.525,-0.114 54.582,-13.113 71.628,-37.337 6.303,-8.958 10.695,-18.686 13.269,-28.701" /><path
             inkscape:connector-curvature="0"
             id="path36"
             style="fill:#c2342f;fill-opacity:1;fill-rule:evenodd;stroke:none"
             d="m 343.901,422.715 c -5.47,-10.324 -1.534,-23.13 8.788,-28.601 10.326,-5.471 23.131,-1.535 28.602,8.789 5.473,10.325 1.536,23.129 -8.789,28.601 -10.322,5.47 -23.128,1.537 -28.601,-8.789 m -16.288,8.632 c 18.756,35.398 62.66,48.887 98.057,30.13 35.396,-18.758 48.887,-62.659 30.131,-98.057 -18.759,-35.397 -62.66,-48.887 -98.057,-30.131 -35.399,18.759 -48.89,62.66 -30.131,98.058" /><path
             inkscape:connector-curvature="0"
             id="path38"
             style="fill:#a52621;fill-opacity:1;fill-rule:evenodd;stroke:none"
             d="m 343.903,422.715 c -5.472,-10.324 -1.536,-23.13 8.786,-28.601 10.326,-5.471 23.131,-1.535 28.602,8.789 5.47,10.324 1.536,23.129 -8.789,28.601 -10.322,5.47 -23.128,1.537 -28.599,-8.789 M 464.178,394.05 c -0.471,-10.384 -3.188,-20.832 -8.377,-30.63 -18.759,-35.397 -62.66,-48.887 -98.057,-30.131 -27.601,14.626 -41.88,44.539 -37.941,73.787 4.867,5.863 10.573,11.189 17.105,15.785 39.72,27.952 94.579,18.411 122.533,-21.309 1.722,-2.446 3.298,-4.95 4.737,-7.502" /></g><path
           d="m 343.901,422.715 c -5.47,-10.324 -1.534,-23.13 8.788,-28.601 10.326,-5.471 23.131,-1.535 28.602,8.789 5.473,10.325 1.536,23.129 -8.789,28.601 -10.322,5.47 -23.128,1.537 -28.601,-8.789 m -9.613,5.094 c 8.285,15.634 27.675,21.594 43.311,13.308 15.632,-8.284 21.59,-27.675 13.305,-43.309 -8.283,-15.635 -27.673,-21.593 -43.308,-13.308 -15.633,8.284 -21.591,27.676 -13.308,43.309"
           style="fill:#db403e;fill-opacity:1;fill-rule:evenodd;stroke:none"
           id="path40"
           inkscape:connector-curvature="0" /><path
           d="m 261.083,485.138 c 15.242,10.725 33.387,14.258 50.402,11.298 15.648,-2.722 30.342,-10.932 40.944,-24.087 -3.4,-1.777 -6.688,-3.791 -9.838,-6.03 -8.724,10.26 -20.525,16.685 -33.062,18.865 -14.135,2.458 -29.209,-0.478 -41.872,-9.387 -12.66,-8.91 -20.512,-22.109 -22.97,-36.244 -2.458,-14.134 0.478,-29.209 9.386,-41.871 8.909,-12.662 22.109,-20.514 36.244,-22.972 14.136,-2.458 29.21,0.477 41.87,9.387 8.687,6.112 15.108,14.244 19.079,23.311 4.049,1.332 8.359,1.384 12.362,0.255 -4.482,-12.854 -12.884,-24.476 -24.867,-32.907 -15.239,-10.725 -33.385,-14.257 -50.402,-11.297 -17.015,2.958 -32.904,12.409 -43.628,27.649 -10.724,15.241 -14.256,33.385 -11.295,50.402 2.958,17.016 12.408,32.904 27.647,43.628"
           style="fill:#fdeaa6;fill-opacity:1;fill-rule:evenodd;stroke:none"
           id="path58"
           inkscape:connector-curvature="0" /><path
           d="M 249.82,242.422 C 246.238,226.058 238.576,210.348 226.716,196.89 189.489,154.66 125.081,150.604 82.85,187.825 40.618,225.053 36.561,289.461 73.785,331.693 c 11.862,13.456 26.485,23.03 42.27,28.635 l -0.093,0.161 133.745,56.602 c 15.977,6.763 15.268,-2.388 25.317,-11.245 10.05,-8.858 19.037,-7.007 14.333,-23.707 L 249.992,242.348 Z"
           style="fill:#612b2f;fill-opacity:1;fill-rule:evenodd;stroke:none"
           id="path60"
           inkscape:connector-curvature="0" /><path
           d="m 193.115,312.92 c 27.729,-24.443 30.394,-66.742 5.951,-94.474 -24.443,-27.728 -66.742,-30.396 -94.473,-5.95 -27.731,24.443 -30.397,66.738 -5.952,94.473 24.444,27.729 66.742,30.394 94.474,5.951"
           style="fill:#4e1e21;fill-opacity:1;fill-rule:evenodd;stroke:none"
           id="path62"
           inkscape:connector-curvature="0" /><path
           d="m 183.632,302.163 c 21.791,-19.207 23.887,-52.445 4.678,-74.233 -19.21,-21.794 -52.444,-23.888 -74.236,-4.681 -21.79,19.21 -23.886,52.446 -4.677,74.237 19.208,21.793 52.445,23.887 74.235,4.677"
           style="fill:#f0d373;fill-opacity:1;fill-rule:evenodd;stroke:none"
           id="path64"
           inkscape:connector-curvature="0" /><path
           d="m 192.484,256.525 c -0.817,-5.699 -2.758,-11.286 -5.842,-16.406 l -73.575,-3.008 c -3.481,4.838 -5.873,10.246 -7.156,15.875 z m -12.251,37.251 c 6.663,-6.738 10.744,-15.172 12.148,-23.982 l -87.452,-3.574 c 0.677,8.862 4.032,17.596 10.147,24.891 z"
           style="fill:#fdeaa6;fill-opacity:1;fill-rule:evenodd;stroke:none"
           id="path66"
           inkscape:connector-curvature="0" /></g></g></g></svg>